<svg width="346" height="205" viewBox="0 0 346 205" fill="none" xmlns="http://www.w3.org/2000/svg">
<path d="M20 7.5H326C332.904 7.5 338.5 13.0964 338.5 20V185C338.5 191.904 332.904 197.5 326 197.5H20C13.0964 197.5 7.5 191.904 7.5 185V20C7.5 13.0964 13.0964 7.5 20 7.5Z" fill="#613D30" stroke="black" stroke-width="15"/>
<path d="M309 15H326C328.761 15 331 17.2386 331 20V187C331 188.657 329.657 190 328 190H309V15Z" fill="#56372B"/>
<path d="M20 190C17.2386 190 15 187.761 15 185L15 182L309 182V190L20 190Z" fill="#56372B"/>
</svg>
