<svg width="380" height="215" viewBox="0 0 380 215" fill="none" xmlns="http://www.w3.org/2000/svg">
<rect y="42" width="380" height="158" rx="25" fill="black"/>
<path d="M118 25C118 11.1929 129.193 0 143 0H238C251.807 0 263 11.1929 263 25V58H118V25Z" fill="black"/>
<path d="M118 25C118 11.1929 129.193 0 143 0H238C251.807 0 263 11.1929 263 25V58H118V25Z" stroke="black"/>
<path d="M17 73C17 64.7157 23.7157 58 32 58H348C356.284 58 363 64.7157 363 73V172C363 180.284 356.284 187 348 187H32C23.7157 187 17 180.284 17 172V73Z" fill="#8E562E"/>
<path d="M151 187H231V212C231 213.657 229.657 215 228 215H154C152.343 215 151 213.657 151 212V187Z" fill="#FFB900"/>
<path d="M134 28C134 19.7157 140.716 13 149 13H232C240.284 13 247 19.7157 247 28V58H134V28Z" fill="#613D30"/>
<path d="M134 28C134 19.7157 140.716 13 149 13H232C240.284 13 247 19.7157 247 28V58H134V28Z" stroke="black"/>
<path d="M151 37C151 35.3431 152.343 34 154 34H227C228.657 34 230 35.3431 230 37V58H151V37Z" fill="black"/>
<path d="M339 58H348C356.284 58 363 64.7157 363 73V172C363 180.284 356.284 187 348 187H339V58Z" fill="#764828"/>
<rect x="42" y="72" width="9" height="9" fill="#FFCAA4"/>
<rect x="51" y="81" width="9" height="9" fill="#FFC297"/>
</svg>
