<svg width="260" height="122" viewBox="0 0 260 122" fill="none" xmlns="http://www.w3.org/2000/svg">
<path d="M0 69C0 50.7746 14.7746 36 33 36H227C245.225 36 260 50.7746 260 69V100H0V69Z" fill="black"/>
<path d="M82 25C82 11.1929 93.1929 0 107 0H152C165.807 0 177 11.1929 177 25V43H82V25Z" fill="black"/>
<path fill-rule="evenodd" clip-rule="evenodd" d="M110 6C98.9543 6 90 14.9543 90 26V43H106V26C106 23.2386 108.239 21 111 21H148C150.761 21 153 23.2386 153 26V43H170V26C170 14.9543 161.046 6 150 6H110Z" fill="#948787"/>
<path d="M6 73C6 56.4315 19.4315 43 36 43H222C238.569 43 252 56.4315 252 73V94H6V73Z" fill="#C50F1F"/>
<path fill-rule="evenodd" clip-rule="evenodd" d="M36 43C19.4315 43 6 56.4315 6 73V92.4889C6 93.3235 6.67655 94 7.51111 94H173V73C173 56.4315 186.431 43 203 43H36Z" fill="#E71224"/>
<rect x="173" y="85" width="79" height="9" fill="#302A2A"/>
<path d="M6 85H173V94H8C6.89543 94 6 93.1046 6 92V85Z" fill="#C40F1F"/>
<path d="M33 98H74V109C74 116.18 68.1797 122 61 122H46C38.8203 122 33 116.18 33 109V98Z" fill="black"/>
<path d="M120 98H161V109C161 116.18 155.18 122 148 122H133C125.82 122 120 116.18 120 109V98Z" fill="black"/>
<path d="M38 81C38 79.3431 39.3431 78 41 78H66C67.6569 78 69 79.3431 69 81V104.5C69 111.404 63.4036 117 56.5 117H50.5C43.5964 117 38 111.404 38 104.5V81Z" fill="#948787"/>
<path d="M38 81C38 79.3431 39.3431 78 41 78H60C61.6569 78 63 79.3431 63 81V104.5C63 111.404 57.4036 117 50.5 117V117C43.5964 117 38 111.404 38 104.5V81Z" fill="#EEEEEE"/>
<path d="M125 81C125 79.3431 126.343 78 128 78H153C154.657 78 156 79.3431 156 81V104.5C156 111.404 150.404 117 143.5 117H137.5C130.596 117 125 111.404 125 104.5V81Z" fill="#948787"/>
<path d="M125 81C125 79.3431 126.343 78 128 78H147C148.657 78 150 79.3431 150 81V104.5C150 111.404 144.404 117 137.5 117V117C130.596 117 125 111.404 125 104.5V81Z" fill="#EEEEEE"/>
<rect x="38" y="85" width="25" height="9" fill="#BBAEAE"/>
<rect x="125" y="85" width="25" height="9" fill="#BBAEAE"/>
</svg>
